<svg width="937.099267578125px" height="282.8px" xmlns="http://www.w3.org/2000/svg" viewBox="-218.5496337890625 -66.4 937.099267578125 282.8" style="background: rgb(33, 37, 41);" preserveAspectRatio="xMidYMid"><defs><filter id="editing-neon" x="-100%" y="-100%" width="300%" height="300%"><feFlood flood-color="#ffc800" result="flood"></feFlood><feComposite operator="in" in="flood" in2="SourceAlpha" result="color"></feComposite><feFlood flood-color="#ffc800" result="flood2"></feFlood><feComposite operator="in" in="flood2" in2="SourceAlpha" result="color2"></feComposite><feMorphology operator="dilate" radius="2" in="color" result="dilate"></feMorphology><feGaussianBlur stdDeviation="6" in="color" result="blur1"></feGaussianBlur><feGaussianBlur stdDeviation="2.5" in="color" result="blur2"></feGaussianBlur><feGaussianBlur stdDeviation="1" in="SourceAlpha" result="blur3"></feGaussianBlur><feGaussianBlur stdDeviation="6" in="dilate" result="blur4"></feGaussianBlur><feConvolveMatrix in="color2" result="conv" order="3,3" divisor="1" kernelMatrix="1 1 1  1 1 1  1 1 1"></feConvolveMatrix><feMerge><feMergeNode in="blur1"></feMergeNode><feMergeNode in="blur2"></feMergeNode><feMergeNode in="blur4"></feMergeNode><feMergeNode in="blur3"></feMergeNode><feMergeNode in="blur3"></feMergeNode><feMergeNode in="blur3"></feMergeNode><feMergeNode in="blur3"></feMergeNode><feMergeNode in="conv"></feMergeNode><feMergeNode in="SourceGraphic"></feMergeNode></feMerge></filter></defs><g filter="url(#editing-neon)"><g transform="translate(-77.51313877105713, 141.67500114440918)"><path d="M61.09-38.59L61.09-38.59L61.09-38.59Q61.09-42.76 56.92-45.74L56.92-45.74L56.92-45.74Q52.75-48.72 41.12-53.04L41.12-53.04L41.12-53.04Q29.50-57.36 22.20-61.98L22.20-61.98L22.20-61.98Q14.90-66.60 14.90-73.08L14.90-73.08L14.90-73.08Q14.90-79.57 22.20-87.69L22.20-87.69L22.20-87.69Q29.50-95.81 36.36-99.23L36.36-99.23L36.36-99.23Q50.36-99.23 62.88-92.23L62.88-92.23L61.98-90.74L61.98-90.74Q49.47-97.45 36.95-97.45L36.95-97.45L34.87-96.25L34.87-96.25Q28.31-92.08 22.65-85.30L22.65-85.30L22.65-85.30Q16.99-78.52 16.99-72.94L16.99-72.94L16.99-72.94Q16.99-67.35 24.36-62.88L24.36-62.88L24.36-62.88Q31.74-58.41 42.84-54.24L42.84-54.24L42.84-54.24Q53.94-50.06 58.56-46.79L58.56-46.79L58.56-46.79Q63.18-43.51 63.18-38.59L63.18-38.59L63.18-38.59Q63.18-35.76 61.54-32.93L61.54-32.93L61.54-32.93Q61.98-31.29 61.98-29.95L61.98-29.95L61.98-29.95Q61.98-22.05 54.91-11.70L54.91-11.70L54.91-11.70Q47.83-1.34 40.53 2.09L40.53 2.09L40.53 2.09Q8.64 2.09 8.64-15.79L8.64-15.79L8.64-15.79Q8.64-21.61 11.85-25.40L11.85-25.40L11.85-25.40Q15.05-29.20 20.19-29.20L20.19-29.20L20.19-29.20Q25.33-29.20 28.31-26.15L28.31-26.15L28.31-26.15Q31.29-23.09 31.29-18.18L31.29-18.18L31.29-18.18Q31.29-16.39 30.54-14.60L30.54-14.60L28.91-15.20L28.91-15.20Q29.35-16.69 29.35-18.18L29.35-18.18L29.35-18.18Q29.35-22.35 26.89-24.88L26.89-24.88L26.89-24.88Q24.44-27.42 20.11-27.42L20.11-27.42L20.11-27.42Q15.79-27.42 13.26-24.14L13.26-24.14L13.26-24.14Q10.73-20.86 10.73-15.94L10.73-15.94L10.73-15.94Q10.73-11.03 13.19-7.67L13.19-7.67L13.19-7.67Q15.64-4.32 20.26-2.68L20.26-2.68L20.26-2.68Q28.61 0.30 39.93 0.30L39.93 0.30L39.93 0.30Q47.23-3.28 53.57-12.89L53.57-12.89L53.57-12.89Q59.90-22.50 59.90-29.20L59.90-29.20L59.90-29.20Q59.90-35.91 52.60-40.23L52.60-40.23L52.60-40.23Q45.30-44.55 34.12-48.72L34.12-48.72L34.12-48.72Q22.95-52.89 18.63-56.17L18.63-56.17L18.63-56.17Q14.30-59.45 12.81-62.73L12.81-62.73L14.30-63.77L14.30-63.77Q16.54-59.75 20.11-57.22L20.11-57.22L20.11-57.22Q23.69-54.68 33.08-51.11L33.08-51.11L33.08-51.11Q42.46-47.53 50.14-43.66L50.14-43.66L50.14-43.66Q57.81-39.78 60.49-35.16L60.49-35.16L60.49-35.16Q61.09-36.80 61.09-38.59ZM113.39 1.94L113.39 1.94L113.39 1.94Q98.19 1.94 91.26-8.27L91.26-8.27L91.26-8.27Q84.33-18.48 84.33-35.61L84.33-35.61L84.33-35.61Q84.33-56.02 96.40-70.63L96.40-70.63L96.40-70.63Q101.17-71.67 106.09-71.67L106.09-71.67L106.09-71.67Q121.44-71.67 128.29-62.80L128.29-62.80L128.29-62.80Q135.14-53.94 135.14-37.10L135.14-37.10L135.14-37.10Q135.14-13.71 123.07 0.89L123.07 0.89L123.07 0.89Q118.31 1.94 113.39 1.94ZM113.84 0.30L113.84 0.30L113.84 0.30Q118.16 0.30 122.18-0.60L122.18-0.60L122.18-0.60Q133.21-14.60 133.21-36.95L133.21-36.95L133.21-36.95Q133.21-53.19 126.80-61.61L126.80-61.61L126.80-61.61Q120.39-70.03 105.64-70.03L105.64-70.03L105.64-70.03Q101.32-70.03 97.30-69.14L97.30-69.14L97.30-69.14Q86.27-55.58 86.27-35.76L86.27-35.76L86.27-35.76Q86.27 0.30 113.84 0.30ZM162.56-67.94L162.56-67.94L162.56-16.39L162.56-16.39Q162.56-11.47 162.78-9.01L162.78-9.01L162.78-9.01Q163.01-6.56 164.12-3.95L164.12-3.95L164.12-3.95Q165.24-1.34 167.55-0.37L167.55-0.37L167.55-0.37Q169.86 0.60 173.81 0.60L173.81 0.60L173.81 0.60Q177.76 0.60 179.69-0.60L179.69-0.60L180.59 0.45L180.59 0.45Q178.35 2.23 173.44 2.23L173.44 2.23L173.44 2.23Q165.39 2.23 163.01-1.94L163.01-1.94L163.01-1.94Q160.62-6.11 160.62-15.94L160.62-15.94L160.62-67.35L160.62-67.35Q160.62-108.62 187.29-108.62L187.29-108.62L187.29-107.13L187.29-107.13Q162.56-107.13 162.56-67.94ZM243.17-60.05L243.17-60.05L243.17-19.67L243.17-19.67Q243.17 0.15 255.98 0.15L255.98 0.15L255.98 0.15Q259.86 0.15 261.79-1.04L261.79-1.04L262.69 0L262.69 0Q260.45 1.79 255.53 1.79L255.53 1.79L255.53 1.79Q241.23 1.79 241.23-19.67L241.23-19.67L241.23-23.54L241.23-23.54Q236.02-14.90 228.04-8.12L228.04-8.12L228.04-8.12Q220.07-1.34 211.88 2.23L211.88 2.23L211.88 2.23Q199.51-3.28 199.51-21.16L199.51-21.16L199.51-21.16Q199.51-21.90 199.51-22.50L199.51-22.50L200.26-53.64L200.26-53.64Q200.26-54.68 200.26-55.73L200.26-55.73L200.26-55.73Q200.26-63.03 198.24-66.83L198.24-66.83L198.24-66.83Q196.23-70.63 188.93-70.63L188.93-70.63L188.93-70.63Q185.06-70.63 183.12-69.43L183.12-69.43L182.23-70.48L182.23-70.48Q184.46-72.27 189.38-72.27L189.38-72.27L189.38-72.27Q197.42-72.27 199.81-68.02L199.81-68.02L199.81-68.02Q202.19-63.77 202.19-55.58L202.19-55.58L202.19-55.58Q202.19-54.68 202.19-53.64L202.19-53.64L201.45-22.50L201.45-22.50Q201.45-21.61 201.45-20.71L201.45-20.71L201.45-20.71Q201.45-4.92 212.03 0.45L212.03 0.45L212.03 0.45Q220.52-3.43 228.34-10.65L228.34-10.65L228.34-10.65Q236.16-17.88 241.23-26.52L241.23-26.52L241.23-60.05L241.23-60.05Q241.23-70.18 228.42-70.18L228.42-70.18L228.42-70.18Q225.73-70.18 222.46-69.43L222.46-69.43L222.16-70.77L222.16-70.77Q224.84-71.82 229.31-71.82L229.31-71.82L229.31-71.82Q233.78-71.82 237.58-69.88L237.58-69.88L237.58-69.88Q241.38-67.94 242.12-64.07L242.12-64.07L242.12-64.07Q242.87-67.94 246.74-69.88L246.74-69.88L246.74-69.88Q250.62-71.82 255.09-71.82L255.09-71.82L255.09-71.82Q259.56-71.82 262.24-70.77L262.24-70.77L261.94-69.43L261.94-69.43Q258.66-70.18 255.98-70.18L255.98-70.18L255.98-70.18Q243.17-70.18 243.17-60.05ZM283.40-68.39L268.65-68.39L268.65-70.03L283.40-70.03L283.84-87.16L285.78-87.16L285.33-70.03L309.32-70.03L309.32-68.39L285.33-68.39L284.44-22.50L284.44-22.50Q284.44-22.05 284.44-21.61L284.44-21.61L284.44-21.61Q284.44-4.92 295.02 0.45L295.02 0.45L295.02 0.45Q304.26-3.87 310.81-11.03L310.81-11.03L312.01-9.98L312.01-9.98Q305.60-2.68 294.87 2.23L294.87 2.23L294.87 2.23Q282.50-3.28 282.50-21.16L282.50-21.16L282.50-21.16Q282.50-21.90 282.50-22.50L282.50-22.50L283.40-68.39ZM328.99-15.94L328.99-15.94L328.99-70.03L330.93-70.03L330.93-16.39L330.93-16.39Q330.93-11.47 331.15-9.01L331.15-9.01L331.15-9.01Q331.38-6.56 332.49-3.95L332.49-3.95L332.49-3.95Q333.61-1.34 335.92-0.37L335.92-0.37L335.92-0.37Q338.23 0.60 342.18 0.60L342.18 0.60L342.18 0.60Q346.13 0.60 348.06-0.60L348.06-0.60L348.96 0.45L348.96 0.45Q346.72 2.23 341.81 2.23L341.81 2.23L341.81 2.23Q333.76 2.23 331.38-1.94L331.38-1.94L331.38-1.94Q328.99-6.11 328.99-15.94ZM333.16-95.96L333.16-95.96L333.16-95.96Q333.16-94.61 332.27-93.57L332.27-93.57L332.27-93.57Q331.38-92.53 329.89-92.53L329.89-92.53L329.89-92.53Q328.40-92.53 327.50-93.57L327.50-93.57L327.50-93.57Q326.61-94.61 326.61-95.96L326.61-95.96L326.61-95.96Q326.61-99.23 329.89-99.23L329.89-99.23L329.89-99.23Q333.16-99.23 333.16-95.96ZM389.63 1.94L389.63 1.94L389.63 1.94Q374.44 1.94 367.51-8.27L367.51-8.27L367.51-8.27Q360.58-18.48 360.58-35.61L360.58-35.61L360.58-35.61Q360.58-56.02 372.65-70.63L372.65-70.63L372.65-70.63Q377.42-71.67 382.33-71.67L382.33-71.67L382.33-71.67Q397.68-71.67 404.53-62.80L404.53-62.80L404.53-62.80Q411.39-53.94 411.39-37.10L411.39-37.10L411.39-37.10Q411.39-13.71 399.32 0.89L399.32 0.89L399.32 0.89Q394.55 1.94 389.63 1.94ZM390.08 0.30L390.08 0.30L390.08 0.30Q394.40 0.30 398.43-0.60L398.43-0.60L398.43-0.60Q409.45-14.60 409.45-36.95L409.45-36.95L409.45-36.95Q409.45-53.19 403.04-61.61L403.04-61.61L403.04-61.61Q396.64-70.03 381.89-70.03L381.89-70.03L381.89-70.03Q377.57-70.03 373.54-69.14L373.54-69.14L373.54-69.14Q362.52-55.58 362.52-35.76L362.52-35.76L362.52-35.76Q362.52 0.30 390.08 0.30ZM487.08-49.32L487.08-49.32L487.08-49.32Q487.08-65.11 476.50-70.48L476.50-70.48L476.50-70.48Q467.86-66.60 460.04-59.38L460.04-59.38L460.04-59.38Q452.21-52.15 447.30-43.51L447.30-43.51L447.30-9.98L447.30-9.98Q447.30 0.15 460.11 0.15L460.11 0.15L460.11 0.15Q462.79 0.15 466.07-0.60L466.07-0.60L466.37 0.74L466.37 0.74Q463.69 1.79 459.22 1.79L459.22 1.79L459.22 1.79Q454.75 1.79 450.87-0.15L450.87-0.15L450.87-0.15Q447.00-2.09 446.25-5.96L446.25-5.96L446.25-5.96Q445.51-2.09 441.71-0.15L441.71-0.15L441.71-0.15Q437.91 1.79 433.44 1.79L433.44 1.79L433.44 1.79Q428.97 1.79 426.29 0.74L426.29 0.74L426.59-0.60L426.59-0.60Q429.86 0.15 432.55 0.15L432.55 0.15L432.55 0.15Q445.36 0.15 445.36-9.98L445.36-9.98L445.36-50.36L445.36-50.36Q445.36-70.18 432.55-70.18L432.55-70.18L432.55-70.18Q428.67-70.18 426.74-68.99L426.74-68.99L425.84-70.03L425.84-70.03Q428.08-71.82 432.99-71.82L432.99-71.82L432.99-71.82Q447.30-71.82 447.30-50.36L447.30-50.36L447.30-46.34L447.30-46.34Q452.36-55.13 460.26-61.84L460.26-61.84L460.26-61.84Q468.16-68.54 476.65-72.27L476.65-72.27L476.65-72.27Q489.02-66.75 489.02-48.87L489.02-48.87L489.02-48.87Q489.02-48.13 489.02-47.53L489.02-47.53L488.27-16.39L488.27-16.39Q488.27-15.35 488.27-14.30L488.27-14.30L488.27-14.30Q488.27-7.00 490.28-3.20L490.28-3.20L490.28-3.20Q492.30 0.60 499.60 0.60L499.60 0.60L499.60 0.60Q503.47 0.60 505.41-0.60L505.41-0.60L506.30 0.45L506.30 0.45Q504.07 2.23 499.15 2.23L499.15 2.23L499.15 2.23Q491.10 2.23 488.72-2.01L488.72-2.01L488.72-2.01Q486.34-6.26 486.34-14.45L486.34-14.45L486.34-14.45Q486.34-15.35 486.34-16.39L486.34-16.39L487.08-47.53L487.08-47.53Q487.08-48.42 487.08-49.32ZM517.63-39.04L517.63-40.68L550.11-40.68L550.11-39.04L517.63-39.04ZM656.94-98.34L656.64-96.70L656.64-96.70Q653.96-97.15 651.50-97.15L651.50-97.15L651.50-97.15Q649.04-97.15 646.44-96.33L646.44-96.33L646.44-96.33Q643.83-95.51 641.89-94.54L641.89-94.54L641.89-94.54Q639.96-93.57 637.79-91.19L637.79-91.19L637.79-91.19Q635.63-88.80 634.37-87.31L634.37-87.31L634.37-87.31Q633.10-85.82 631.16-82.32L631.16-82.32L631.16-82.32Q629.23-78.82 628.41-77.26L628.41-77.26L628.41-77.26Q627.59-75.69 625.50-71.52L625.50-71.52L625.50-71.52Q614.92-49.91 610.45-45.00L610.45-45.00L610.45-45.00Q612.69-41.72 615.82-35.76L615.82-35.76L625.80-16.09L625.80-16.09Q631.91-4.32 635.71 1.79L635.71 1.79L635.71 1.79Q639.51 7.90 645.10 13.41L645.10 13.41L645.10 13.41Q650.68 18.92 657.39 21.01L657.39 21.01L657.39 21.01Q664.09 23.09 673.78 23.09L673.78 23.09L673.78 24.73L673.78 24.73Q663.94 24.73 657.16 22.80L657.16 22.80L657.16 22.80Q650.38 20.86 644.57 15.57L644.57 15.57L644.57 15.57Q638.76 10.28 634.44 3.58L634.44 3.58L634.44 3.58Q630.12-3.13 624.01-15.20L624.01-15.20L614.03-34.87L614.03-34.87Q610.30-41.72 609.11-43.66L609.11-43.66L609.11-43.66Q604.94-39.78 600.77-39.78L600.77-39.78L600.77-39.78Q596.60-39.78 593.91-42.02L593.91-42.02L593.91-42.02Q591.23-44.25 591.23-47.31L591.23-47.31L591.23-47.31Q591.23-50.36 593.24-52.15L593.24-52.15L593.24-52.15Q595.25-53.94 598.09-53.94L598.09-53.94L598.09-53.94Q604.20-53.94 609.56-46.49L609.56-46.49L609.56-46.49Q611.94-49.17 613.95-52.97L613.95-52.97L613.95-52.97Q615.97-56.77 618.05-61.02L618.05-61.02L618.05-61.02Q620.14-65.26 620.96-66.75L620.96-66.75L620.96-66.75Q621.78-68.24 623.79-72.41L623.79-72.41L623.79-72.41Q625.80-76.59 626.77-78.37L626.77-78.37L626.77-78.37Q627.74-80.16 629.75-83.66L629.75-83.66L629.75-83.66Q631.76-87.16 633.10-88.80L633.10-88.80L633.10-88.80Q634.44-90.44 636.75-92.83L636.75-92.83L636.75-92.83Q639.06-95.21 641.15-96.25L641.15-96.25L641.15-96.25Q646.51-98.94 650.53-98.94L650.53-98.94L650.53-98.94Q654.56-98.94 656.94-98.34L656.94-98.34ZM593.32-47.38L593.32-47.38L593.32-47.38Q593.32-45.15 595.40-43.36L595.40-43.36L595.40-43.36Q597.49-41.57 600.92-41.57L600.92-41.57L600.92-41.57Q604.34-41.57 608.22-45.15L608.22-45.15L608.22-45.15Q603.30-52.15 598.09-52.15L598.09-52.15L598.09-52.15Q596-52.15 594.66-50.88L594.66-50.88L594.66-50.88Q593.32-49.62 593.32-47.38ZM580.65-15.94L580.65-15.94L580.65-81.06L580.65-81.06Q580.65-89.40 577.97-93.27L577.97-93.27L577.97-93.27Q575.29-97.15 567.84-97.15L567.84-97.15L567.84-97.15Q565.16-97.15 561.88-96.40L561.88-96.40L561.58-97.89L561.58-97.89Q564.26-98.79 568.29-98.79L568.29-98.79L568.29-98.79Q576.18-98.79 579.46-94.39L579.46-94.39L579.46-94.39Q582.74-90.00 582.74-81.06L582.74-81.06L582.74-15.94L582.74-15.94Q582.74-7.00 579.46-2.61L579.46-2.61L579.46-2.61Q576.18 1.79 568.29 1.79L568.29 1.79L568.29 1.79Q564.26 1.79 561.58 0.89L561.58 0.89L561.88-0.60L561.88-0.60Q565.16 0.15 567.84 0.15L567.84 0.15L567.84 0.15Q575.29 0.15 577.97-3.72L577.97-3.72L577.97-3.72Q580.65-7.60 580.65-15.94ZM588.70-81.06L588.70-81.06L588.70-15.94L588.70-15.94Q588.70-7.60 591.38-3.72L591.38-3.72L591.38-3.72Q594.06 0.15 601.51 0.15L601.51 0.15L601.51 0.15Q604.20 0.15 607.47-0.60L607.47-0.60L607.77 0.89L607.77 0.89Q605.09 1.79 601.07 1.79L601.07 1.79L601.07 1.79Q593.17 1.79 589.89-2.61L589.89-2.61L589.89-2.61Q586.61-7.00 586.61-15.94L586.61-15.94L586.61-81.06L586.61-81.06Q586.61-90.00 589.89-94.39L589.89-94.39L589.89-94.39Q593.17-98.79 601.07-98.79L601.07-98.79L601.07-98.79Q605.09-98.79 607.77-97.89L607.77-97.89L607.47-96.40L607.47-96.40Q604.20-97.15 601.51-97.15L601.51-97.15L601.51-97.15Q594.06-97.15 591.38-93.27L591.38-93.27L591.38-93.27Q588.70-89.40 588.70-81.06Z" fill="none" stroke="#ffffbb" stroke-width="0.5"></path></g></g><style>text {
  font-size: 64px;
  font-family: Arial Black;
  dominant-baseline: central;
  text-anchor: middle;
}</style></svg>